<svg width="121" height="20" viewBox="0 0 121 20" fill="none" xmlns="http://www.w3.org/2000/svg">
<path d="M36.284 15.6399L34.044 8.09388H33.988C33.9974 8.28055 34.0114 8.55121 34.03 8.90588C34.058 9.25121 34.0814 9.62455 34.1 10.0259C34.1187 10.4272 34.128 10.7959 34.128 11.1319V15.6399H32V5.64388H35.22L37.446 13.0359H37.502L39.798 5.64388H43.004V15.6399H40.792V11.0759C40.792 10.7585 40.7967 10.4085 40.806 10.0259C40.8247 9.63388 40.8387 9.26521 40.848 8.91988C40.8667 8.56521 40.8807 8.29455 40.89 8.10788H40.834L38.524 15.6399H36.284ZM44.1815 7.95388H46.7015L48.0875 12.3079C48.1341 12.4665 48.1715 12.6439 48.1995 12.8399C48.2368 13.0265 48.2648 13.2179 48.2835 13.4139H48.3255C48.3535 13.1992 48.3861 13.0032 48.4235 12.8259C48.4701 12.6392 48.5168 12.4712 48.5635 12.3219L49.9495 7.95388H52.4135L49.2495 16.3959C48.9321 17.2546 48.4981 17.9032 47.9475 18.3419C47.3968 18.7806 46.6921 18.9999 45.8335 18.9999C45.5908 18.9999 45.3808 18.9859 45.2035 18.9579C45.0355 18.9392 44.8861 18.9159 44.7555 18.8879V17.0259C44.8581 17.0446 44.9795 17.0632 45.1195 17.0819C45.2688 17.1006 45.4228 17.1099 45.5815 17.1099C46.0201 17.1099 46.3561 16.9792 46.5895 16.7179C46.8228 16.4566 47.0048 16.1486 47.1355 15.7939L47.2195 15.5559L44.1815 7.95388ZM65.5266 5.64388V11.9019C65.5266 12.6672 65.368 13.3392 65.0506 13.9179C64.7426 14.4966 64.276 14.9539 63.6506 15.2899C63.0346 15.6166 62.2506 15.7799 61.2986 15.7799C59.9546 15.7799 58.928 15.4346 58.2186 14.7439C57.5093 14.0532 57.1546 13.1105 57.1546 11.9159V5.64388H59.5486V11.6499C59.5486 12.4152 59.698 12.9612 59.9966 13.2879C60.3046 13.6145 60.7573 13.7779 61.3546 13.7779C61.98 13.7779 62.4326 13.6099 62.7126 13.2739C63.002 12.9285 63.1466 12.3825 63.1466 11.6359V5.64388H65.5266ZM72.2167 7.81388C73.0287 7.81388 73.682 8.03788 74.1767 8.48588C74.6807 8.92455 74.9327 9.63855 74.9327 10.6279V15.6399H72.5807V11.2859C72.5807 10.7539 72.492 10.3525 72.3147 10.0819C72.1373 9.81121 71.8573 9.67588 71.4747 9.67588C70.9053 9.67588 70.518 9.89055 70.3127 10.3199C70.1073 10.7399 70.0047 11.3465 70.0047 12.1399V15.6399H67.6387V7.95388H69.4307L69.7527 8.94788H69.8647C70.1073 8.57455 70.434 8.29455 70.8447 8.10788C71.2553 7.91188 71.7127 7.81388 72.2167 7.81388ZM82.4519 13.3159C82.4519 14.0719 82.1859 14.6739 81.6539 15.1219C81.1312 15.5606 80.3099 15.7799 79.1899 15.7799C78.6485 15.7799 78.1725 15.7472 77.7619 15.6819C77.3605 15.6166 76.9545 15.4999 76.5439 15.3319V13.4279C76.9919 13.6332 77.4585 13.7919 77.9439 13.9039C78.4292 14.0066 78.8399 14.0579 79.1759 14.0579C79.5305 14.0579 79.7872 14.0112 79.9459 13.9179C80.1045 13.8245 80.1839 13.6939 80.1839 13.5259C80.1839 13.4045 80.1419 13.2972 80.0579 13.2039C79.9832 13.1105 79.8245 13.0079 79.5819 12.8959C79.3485 12.7745 78.9985 12.6159 78.5319 12.4199C78.0745 12.2239 77.6965 12.0232 77.3979 11.8179C77.1085 11.6125 76.8892 11.3699 76.7399 11.0899C76.5999 10.8005 76.5299 10.4412 76.5299 10.0119C76.5299 9.28388 76.8099 8.73788 77.3699 8.37388C77.9392 8.00055 78.6905 7.81388 79.6239 7.81388C80.1185 7.81388 80.5852 7.86521 81.0239 7.96788C81.4625 8.07055 81.9152 8.22921 82.3819 8.44388L81.7099 10.0399C81.3272 9.87188 80.9539 9.73655 80.5899 9.63388C80.2352 9.53121 79.9132 9.47988 79.6239 9.47988C79.0825 9.47988 78.8119 9.61988 78.8119 9.89988C78.8119 10.0025 78.8492 10.1005 78.9239 10.1939C79.0079 10.2779 79.1619 10.3712 79.3859 10.4739C79.6192 10.5765 79.9552 10.7212 80.3939 10.9079C80.8325 11.0852 81.2059 11.2765 81.5139 11.4819C81.8219 11.6779 82.0552 11.9205 82.2139 12.2099C82.3725 12.4992 82.4519 12.8679 82.4519 13.3159ZM88.4839 7.81388C89.3426 7.81388 90.0286 8.15455 90.5419 8.83588C91.0552 9.50788 91.3119 10.4879 91.3119 11.7759C91.3119 12.6532 91.1859 13.3905 90.9339 13.9879C90.6819 14.5759 90.3366 15.0239 89.8979 15.3319C89.4686 15.6306 88.9739 15.7799 88.4139 15.7799C87.8632 15.7799 87.4292 15.6819 87.1119 15.4859C86.8039 15.2899 86.5566 15.0752 86.3699 14.8419H86.2719C86.2999 15.0192 86.3232 15.2059 86.3419 15.4019C86.3606 15.5979 86.3699 15.8079 86.3699 16.0319V18.9999H84.0039V7.95388H85.9219L86.2579 8.93388H86.3699C86.5659 8.63521 86.8319 8.37388 87.1679 8.14988C87.5039 7.92588 87.9426 7.81388 88.4839 7.81388ZM87.6579 9.67588C87.1819 9.67588 86.8506 9.83455 86.6639 10.1519C86.4772 10.4599 86.3792 10.9265 86.3699 11.5519V11.7619C86.3699 12.4432 86.4632 12.9659 86.6499 13.3299C86.8366 13.6939 87.1819 13.8759 87.6859 13.8759C88.4979 13.8759 88.9039 13.1665 88.9039 11.7479C88.9039 11.0292 88.8012 10.5065 88.5959 10.1799C88.3906 9.84388 88.0779 9.67588 87.6579 9.67588ZM95.2976 15.6399H92.9316V4.99988H95.2976V15.6399ZM100.764 7.79988C101.763 7.79988 102.537 8.03321 103.088 8.49988C103.639 8.96655 103.914 9.64788 103.914 10.5439V15.6399H102.276L101.814 14.6039H101.758C101.431 15.0239 101.086 15.3272 100.722 15.5139C100.358 15.6912 99.8594 15.7799 99.2243 15.7799C98.543 15.7799 97.9783 15.5792 97.5303 15.1779C97.0823 14.7766 96.8583 14.1559 96.8583 13.3159C96.8583 12.5039 97.143 11.9019 97.7123 11.5099C98.291 11.1085 99.1357 10.8845 100.246 10.8379L101.562 10.7959V10.5719C101.562 10.1985 101.464 9.92788 101.268 9.75988C101.081 9.59188 100.82 9.50788 100.484 9.50788C100.148 9.50788 99.7984 9.56388 99.4343 9.67588C99.0703 9.77855 98.7017 9.90921 98.3283 10.0679L97.6143 8.49988C98.0343 8.27588 98.5103 8.10321 99.0423 7.98188C99.5743 7.86055 100.148 7.79988 100.764 7.79988ZM101.562 12.1399L100.848 12.1679C100.26 12.1865 99.8494 12.2939 99.6163 12.4899C99.383 12.6765 99.2663 12.9332 99.2663 13.2599C99.2663 13.5492 99.3503 13.7592 99.5183 13.8899C99.6864 14.0206 99.9014 14.0859 100.162 14.0859C100.554 14.0859 100.885 13.9692 101.156 13.7359C101.427 13.4932 101.562 13.1665 101.562 12.7559V12.1399ZM111.436 13.3159C111.436 14.0719 111.17 14.6739 110.638 15.1219C110.115 15.5606 109.294 15.7799 108.174 15.7799C107.633 15.7799 107.157 15.7472 106.746 15.6819C106.345 15.6166 105.939 15.4999 105.528 15.3319V13.4279C105.976 13.6332 106.443 13.7919 106.928 13.9039C107.413 14.0066 107.824 14.0579 108.16 14.0579C108.515 14.0579 108.771 14.0112 108.93 13.9179C109.089 13.8245 109.168 13.6939 109.168 13.5259C109.168 13.4045 109.126 13.2972 109.042 13.2039C108.967 13.1105 108.809 13.0079 108.566 12.8959C108.333 12.7745 107.983 12.6159 107.516 12.4199C107.059 12.2239 106.681 12.0232 106.382 11.8179C106.093 11.6125 105.873 11.3699 105.724 11.0899C105.584 10.8005 105.514 10.4412 105.514 10.0119C105.514 9.28388 105.794 8.73788 106.354 8.37388C106.923 8.00055 107.675 7.81388 108.608 7.81388C109.103 7.81388 109.569 7.86521 110.008 7.96788C110.447 8.07055 110.899 8.22921 111.366 8.44388L110.694 10.0399C110.311 9.87188 109.938 9.73655 109.574 9.63388C109.219 9.53121 108.897 9.47988 108.608 9.47988C108.067 9.47988 107.796 9.61988 107.796 9.89988C107.796 10.0025 107.833 10.1005 107.908 10.1939C107.992 10.2779 108.146 10.3712 108.37 10.4739C108.603 10.5765 108.939 10.7212 109.378 10.9079C109.817 11.0852 110.19 11.2765 110.498 11.4819C110.806 11.6779 111.039 11.9205 111.198 12.2099C111.357 12.4992 111.436 12.8679 111.436 13.3159ZM115.354 4.99988V6.86188C115.354 7.32855 115.34 7.74855 115.312 8.12188C115.284 8.48588 115.261 8.75188 115.242 8.91988H115.368C115.611 8.51855 115.914 8.23388 116.278 8.06588C116.651 7.89788 117.071 7.81388 117.538 7.81388C118.07 7.81388 118.541 7.91188 118.952 8.10788C119.372 8.30388 119.699 8.60721 119.932 9.01788C120.165 9.42855 120.282 9.96521 120.282 10.6279V15.6399H117.916V11.2859C117.916 10.2125 117.552 9.67588 116.824 9.67588C116.264 9.67588 115.877 9.89055 115.662 10.3199C115.457 10.7399 115.354 11.3419 115.354 12.1259V15.6399H112.988V4.99988H115.354Z" fill="black"/>
<path d="M12.6173 0.911133H9.52856C8.42399 0.911133 7.52856 1.80656 7.52856 2.91113V5.99987C7.52856 7.10444 8.42399 7.99987 9.52856 7.99987H12.6173C13.7219 7.99987 14.6173 7.10444 14.6173 5.99987V2.91113C14.6173 1.80656 13.7219 0.911133 12.6173 0.911133Z" fill="black"/>
<path d="M20.1458 11.9999H2C0.89543 11.9999 0 12.8953 0 13.9999V17.0886C0 18.1932 0.89543 19.0886 2 19.0886H20.1458C21.2504 19.0886 22.1458 18.1932 22.1458 17.0886V13.9999C22.1458 12.8953 21.2504 11.9999 20.1458 11.9999Z" fill="black"/>
</svg>
